<?xml version="1.0" encoding="UTF-8"?>
<svg version="1.1" xmlns="http://www.w3.org/2000/svg" width="500" height="500">
<path d="M0 0 C1.21922029 -0.00445668 1.21922029 -0.00445668 2.46307129 -0.0090034 C5.17257062 -0.01763886 7.8820255 -0.01919427 10.59153748 -0.02069092 C12.54027398 -0.02532281 14.48900958 -0.03034797 16.43774414 -0.03573608 C21.72322471 -0.04882789 27.00869259 -0.05529896 32.29418683 -0.05974674 C35.60114476 -0.06268318 38.90809927 -0.0667891 42.21505547 -0.07125092 C52.5755539 -0.0849185 62.93604446 -0.09458829 73.29655129 -0.09845281 C85.23020796 -0.10292932 97.16374985 -0.12046149 109.09737164 -0.1494534 C118.33842181 -0.17111944 127.57943981 -0.18115974 136.8205151 -0.18249393 C142.33178975 -0.18353859 147.84295641 -0.18937397 153.35420418 -0.20731354 C158.54416319 -0.22387908 163.733934 -0.22590879 168.92391014 -0.21717453 C170.81924572 -0.21640863 172.71459178 -0.22068722 174.60990143 -0.23063278 C188.63074138 -0.2998384 202.01169302 0.35485768 214.65965271 7.14044189 C215.46918396 7.56067627 216.27871521 7.98091064 217.11277771 8.41387939 C223.56254952 11.99488767 228.94220474 16.44304096 233.65965271 22.14044189 C233.65965271 22.80044189 233.65965271 23.46044189 233.65965271 24.14044189 C234.31965271 24.14044189 234.97965271 24.14044189 235.65965271 24.14044189 C246.91400084 39.43883155 248.11147023 56.81709202 248.06370544 75.10479736 C248.06941817 77.09220766 248.0763859 79.07961467 248.08450317 81.0670166 C248.10235024 86.4307671 248.10128213 91.79435325 248.09556079 97.15812445 C248.09245656 101.65084816 248.09857509 106.14354087 248.10459954 110.63626015 C248.11861552 121.2426611 248.11710798 131.84898146 248.10569763 142.4553833 C248.09422021 153.36460392 248.1082926 164.27357858 248.13509411 175.1827668 C248.15730953 184.58023069 248.16387532 193.97761771 248.15801769 203.37510598 C248.15466078 208.97408768 248.15697861 214.57291179 248.17426872 220.17187119 C248.18982909 225.4399548 248.18568213 230.70767637 248.16696358 235.97574615 C248.1633027 237.89807444 248.16631223 239.82043011 248.17684937 241.742733 C248.26568486 259.30312947 245.60360412 273.22451478 235.65965271 288.14044189 C234.99965271 288.14044189 234.33965271 288.14044189 233.65965271 288.14044189 C233.19559021 289.06856689 233.19559021 289.06856689 232.72215271 290.01544189 C232.03465271 291.39044189 231.34715271 292.76544189 230.65965271 294.14044189 C229.99965271 294.14044189 229.33965271 294.14044189 228.65965271 294.14044189 C228.65965271 294.80044189 228.65965271 295.46044189 228.65965271 296.14044189 C223.26335582 300.62998398 217.17440819 304.51187968 210.65965271 307.14044189 C209.80500427 307.50137939 208.95035583 307.86231689 208.06980896 308.23419189 C200.17210246 311.0227894 192.58347259 311.51931591 184.27464294 311.75250244 C183.02258529 311.79109469 181.77052763 311.82968695 180.48052883 311.86944866 C163.1353051 312.36184058 145.7792175 312.24138074 128.42917562 312.17163301 C125.47152857 312.15983036 122.51387927 312.14921709 119.55622673 312.13889122 C110.25510389 312.10589589 100.95401835 312.06809208 91.65294367 312.02352601 C80.99642443 311.97256143 70.3400204 311.93844501 59.68339926 311.91834527 C51.37600327 311.90162508 43.06874975 311.86971803 34.76144975 311.82649916 C29.82731032 311.80117225 24.89334673 311.78209286 19.95913887 311.77912331 C15.33179539 311.77595118 10.70491407 311.75377983 6.07771492 311.71756744 C4.39202516 311.70754034 2.70627985 311.70408761 1.02056503 311.70809746 C-11.69100427 311.73252317 -23.83060256 310.5704386 -34.90284729 303.64044189 C-35.83226135 303.07325439 -36.76167542 302.50606689 -37.71925354 301.92169189 C-42.76613903 298.49191577 -46.66239562 294.97432123 -50.34034729 290.14044189 C-50.34034729 289.48044189 -50.34034729 288.82044189 -50.34034729 288.14044189 C-51.00034729 288.14044189 -51.66034729 288.14044189 -52.34034729 288.14044189 C-63.72109954 272.67022714 -64.79333164 254.75214448 -64.74440002 236.26202393 C-64.75011422 234.29579279 -64.75708251 232.32956497 -64.76519775 230.36334229 C-64.78302856 225.06156473 -64.78197983 219.7599536 -64.77625537 214.45815516 C-64.77314878 210.01518198 -64.77927225 205.57224009 -64.78529412 201.12927139 C-64.79930473 190.63931568 -64.79780704 180.14944147 -64.78639221 169.65948486 C-64.77491512 158.87466236 -64.78898785 148.09008866 -64.81578869 137.30529892 C-64.83801305 128.01055828 -64.8445679 118.71589536 -64.83871228 109.42113006 C-64.83535751 103.88528789 -64.83765866 98.34960512 -64.8549633 92.81378555 C-64.87053811 87.60478012 -64.86636106 82.39614058 -64.84765816 77.18714905 C-64.84400123 75.28781576 -64.84699497 73.3884547 -64.85754395 71.48914719 C-64.93210325 56.941865 -63.85114376 43.01609299 -56.34034729 30.14044189 C-55.68034729 30.14044189 -55.02034729 30.14044189 -54.34034729 30.14044189 C-54.12378479 29.21231689 -54.12378479 29.21231689 -53.90284729 28.26544189 C-53.34034729 26.14044189 -53.34034729 26.14044189 -52.34034729 24.14044189 C-51.68034729 24.14044189 -51.02034729 24.14044189 -50.34034729 24.14044189 C-50.06706604 23.54747314 -49.79378479 22.95450439 -49.51222229 22.34356689 C-43.6679422 11.35632032 -29.44167688 5.41156067 -18.15675354 1.83184814 C-12.1239396 0.35083834 -6.18839155 -0.00716623 0 0 Z M49.65965271 53.14044189 C49.65965271 53.80044189 49.65965271 54.46044189 49.65965271 55.14044189 C49.06926208 55.40727783 48.47887146 55.67411377 47.87059021 55.94903564 C37.79268837 61.37970713 31.62719899 73.72157619 27.53465271 83.95294189 C25.7384141 90.49638256 24.14783379 96.43879682 25.65965271 103.14044189 C25.37360373 104.81587165 25.04184038 106.48429532 24.65965271 108.14044189 C24.65965271 126.33032599 34.84965306 143.19146406 44.32029724 158.01837158 C45.24674499 159.48623229 46.15276404 160.96711316 47.04197693 162.45782471 C47.48170837 163.190979 47.92143982 163.9241333 48.37449646 164.67950439 C48.76629089 165.34417725 49.15808533 166.0088501 49.56175232 166.69366455 C49.92405945 167.17110107 50.28636658 167.6485376 50.65965271 168.14044189 C51.31965271 168.14044189 51.97965271 168.14044189 52.65965271 168.14044189 C52.92608582 168.87923584 53.19251892 169.61802979 53.46702576 170.37921143 C54.63813931 173.09063298 55.9093526 175.01933967 57.74168396 177.32012939 C58.34432068 178.08454346 58.9469574 178.84895752 59.56785583 179.63653564 C60.51048279 180.81409424 60.51048279 180.81409424 61.47215271 182.01544189 C62.70914994 183.57429106 63.94484748 185.13417253 65.17918396 186.69512939 C65.77166931 187.44117432 66.36415466 188.18721924 66.97459412 188.95587158 C68.55045925 190.99887958 70.0250875 193.08333881 71.48387146 195.21075439 C72.20187927 196.17755127 72.91988708 197.14434814 73.65965271 198.14044189 C74.31965271 198.14044189 74.97965271 198.14044189 75.65965271 198.14044189 C75.89941833 198.68829346 76.13918396 199.23614502 76.38621521 199.80059814 C77.96447054 202.70052129 79.91906948 205.04416198 82.03465271 207.57794189 C84.94254666 211.07422242 87.82980954 214.58052502 90.65965271 218.14044189 C94.62147685 216.60073297 96.55747545 214.12076552 99.15965271 210.82794189 C99.91246521 209.88305908 100.66527771 208.93817627 101.44090271 207.96466064 C102.17309021 207.03266846 102.90527771 206.10067627 103.65965271 205.14044189 C104.41246521 204.23938721 105.16527771 203.33833252 105.94090271 202.40997314 C107.86089457 200.34919549 107.86089457 200.34919549 107.65965271 198.14044189 C108.31965271 198.14044189 108.97965271 198.14044189 109.65965271 198.14044189 C111.07639558 196.59200919 111.07639558 196.59200919 112.47215271 194.57794189 C112.99680115 193.85219971 113.52144958 193.12645752 114.06199646 192.37872314 C114.58922302 191.64009033 115.11644958 190.90145752 115.65965271 190.14044189 C116.15594177 189.47399658 116.65223083 188.80755127 117.16355896 188.12091064 C119.77109296 184.96559362 119.77109296 184.96559362 120.65965271 181.14044189 C121.31965271 181.14044189 121.97965271 181.14044189 122.65965271 181.14044189 C124.54154979 178.71910852 126.300765 176.29048109 128.03465271 173.76544189 C128.56268494 173.00465332 129.09071716 172.24386475 129.63475037 171.46002197 C131.31802713 169.02577163 132.98932262 166.58358963 134.65965271 164.14044189 C135.20105896 163.35556396 135.74246521 162.57068604 136.30027771 161.76202393 C150.2810687 141.46527487 161.36718526 120.75849581 158.03465271 95.39044189 C155.86941366 83.73146237 150.99014771 73.42092079 143.65965271 64.14044189 C142.66965271 62.77919189 142.66965271 62.77919189 141.65965271 61.39044189 C138.94331883 58.33456628 135.98830179 55.52624702 132.65965271 53.14044189 C131.99965271 53.14044189 131.33965271 53.14044189 130.65965271 53.14044189 C130.65965271 52.48044189 130.65965271 51.82044189 130.65965271 51.14044189 C128.16218248 49.86442859 125.66187335 48.59458018 123.15965271 47.32794189 C122.46355896 46.97151611 121.76746521 46.61509033 121.05027771 46.24786377 C97.51575996 34.3716488 71.07890574 37.81892216 49.65965271 53.14044189 Z M15.65965271 181.14044189 C14.8075824 181.33895752 13.95551208 181.53747314 13.07762146 181.74200439 C5.31930131 186.22904577 2.40473939 198.52580172 -0.84034729 206.51544189 C-1.95009814 209.23359249 -3.06454453 211.94975128 -4.18409729 214.66387939 C-4.45243378 215.31506241 -4.72077026 215.96624542 -4.99723816 216.63716125 C-6.90905764 221.22736159 -9.00762457 225.67861819 -11.31642151 230.08111572 C-12.35490263 232.16971568 -13.17693551 234.25889154 -13.96534729 236.45294189 C-15.17285387 239.69125499 -16.57634381 242.20043609 -18.34034729 245.14044189 C-20.6453791 250.45778144 -20.6453791 250.45778144 -21.34034729 256.14044189 C-13.23599542 257.25622703 -13.23599542 257.25622703 -5.90675354 254.41778564 C-3.85742833 252.08882542 -2.08704627 249.70305922 -0.34034729 247.14044189 C0.82455663 245.65988659 1.99108011 244.1806033 3.15965271 242.70294189 C5.20534783 240.19557673 5.20534783 240.19557673 5.65965271 237.14044189 C6.31965271 237.14044189 6.97965271 237.14044189 7.65965271 237.14044189 C10.6848318 234.08485767 10.6848318 234.08485767 11.65965271 230.14044189 C12.31965271 230.14044189 12.97965271 230.14044189 13.65965271 230.14044189 C15.13539242 228.56677931 15.13539242 228.56677931 16.65965271 226.45294189 C17.27969177 225.63309814 17.89973083 224.81325439 18.53855896 223.96856689 C19.2385199 223.03528564 19.93848083 222.10200439 20.65965271 221.14044189 C22.30273148 218.99241697 23.94842041 216.84660913 25.59715271 214.70294189 C26.01851501 214.15251221 26.43987732 213.60208252 26.87400818 213.03497314 C30.24772045 208.63841441 33.72634577 204.33461292 37.26121521 200.06622314 C38.85551471 198.26738311 38.85551471 198.26738311 38.65965271 196.14044189 C39.31965271 196.14044189 39.97965271 196.14044189 40.65965271 196.14044189 C41.97965271 193.83044189 43.29965271 191.52044189 44.65965271 189.14044189 C43.66965271 187.65544189 43.66965271 187.65544189 42.65965271 186.14044189 C41.99965271 186.14044189 41.33965271 186.14044189 40.65965271 186.14044189 C40.22652771 184.99575439 40.22652771 184.99575439 39.78465271 183.82794189 C38.69696258 180.99014882 38.69696258 180.99014882 36.65965271 178.14044189 C29.46114206 177.32551616 22.57197877 179.21100901 15.65965271 181.14044189 Z M147.65965271 178.14044189 C143.97661616 181.57980498 143.97661616 181.57980498 142.65965271 186.14044189 C141.99965271 186.14044189 141.33965271 186.14044189 140.65965271 186.14044189 C139.99965271 187.79044189 139.33965271 189.44044189 138.65965271 191.14044189 C137.99965271 191.14044189 137.33965271 191.14044189 136.65965271 191.14044189 C134.93080811 193.35858214 133.31298324 195.57650658 131.72215271 197.89044189 C130.83836903 199.15629799 129.95426254 200.42192877 129.06980896 201.68731689 C128.44743347 202.5835376 128.44743347 202.5835376 127.81248474 203.49786377 C126.46977216 205.41098749 125.07991748 207.28425428 123.65965271 209.14044189 C130.32031574 212.6917045 137.1551161 215.65905075 144.15354919 218.46490479 C148.12242497 220.06381217 152.02812272 221.75352139 155.91355896 223.54669189 C161.91231998 226.29623235 168.01859987 228.72923096 174.15965271 231.14044189 C182.10195946 234.25889363 189.92662849 237.5311853 197.65965271 241.14044189 C196.91186989 237.02741936 195.66459385 233.73045879 193.84715271 229.95294189 C191.63841898 225.34810114 189.66019784 220.71115785 187.78196716 215.9619751 C185.63309663 210.55964819 183.39857759 205.19343081 181.15965271 199.82794189 C180.68656677 198.67487549 180.21348083 197.52180908 179.72605896 196.33380127 C179.2607074 195.22198486 178.79535583 194.11016846 178.31590271 192.96466064 C177.90146912 191.96523438 177.48703552 190.96580811 177.06004333 189.93609619 C174.97046144 185.76458254 173.11685217 182.72952253 168.72215271 180.95294189 C161.84782956 179.38380291 154.71076884 178.14044189 147.65965271 178.14044189 Z M54.65965271 205.14044189 C53.99965271 206.79044189 53.33965271 208.44044189 52.65965271 210.14044189 C51.99965271 210.14044189 51.33965271 210.14044189 50.65965271 210.14044189 C48.86425715 212.23016459 47.18903829 214.31886272 45.53465271 216.51544189 C45.06672302 217.11872314 44.59879333 217.72200439 44.11668396 218.34356689 C41.52351032 221.3977913 41.52351032 221.3977913 40.65965271 225.14044189 C39.99965271 225.14044189 39.33965271 225.14044189 38.65965271 225.14044189 C38.32965271 226.46044189 37.99965271 227.78044189 37.65965271 229.14044189 C36.99965271 229.14044189 36.33965271 229.14044189 35.65965271 229.14044189 C34.29905181 230.62680948 34.29905181 230.62680948 33.03465271 232.51544189 C32.58863708 233.14192627 32.14262146 233.76841064 31.68309021 234.41387939 C30.48968302 236.09266833 30.48968302 236.09266833 30.65965271 238.14044189 C29.99965271 238.14044189 29.33965271 238.14044189 28.65965271 238.14044189 C27.32096997 239.77463959 26.06311525 241.4754846 24.84715271 243.20294189 C24.1807074 244.14266846 23.51426208 245.08239502 22.82762146 246.05059814 C22.11219177 247.07024658 21.39676208 248.08989502 20.65965271 249.14044189 C19.00965271 251.45044189 17.35965271 253.76044189 15.65965271 256.14044189 C72.41965271 256.14044189 129.17965271 256.14044189 187.65965271 256.14044189 C184.7434685 254.19631909 182.00230377 252.90735945 178.78855896 251.52325439 C177.58779724 251.0044873 176.38703552 250.48572021 175.14988708 249.95123291 C173.84067712 249.38922144 172.53143144 248.82729314 171.22215271 248.26544189 C169.87504864 247.68486069 168.52804471 247.10404706 167.18113708 246.52301025 C163.00913491 244.72456084 158.83455116 242.93215525 154.65965271 241.14044189 C153.34958071 240.57781035 152.0395218 240.01514833 150.72947693 239.45245361 C143.80748154 236.47990373 136.88286104 233.51351537 129.95652771 230.55108643 C124.18972292 228.08362507 118.424749 225.611892 112.65965271 223.14044189 C112.65965271 223.80044189 112.65965271 224.46044189 112.65965271 225.14044189 C111.99965271 225.14044189 111.33965271 225.14044189 110.65965271 225.14044189 C110.65965271 225.80044189 110.65965271 226.46044189 110.65965271 227.14044189 C109.99965271 227.14044189 109.33965271 227.14044189 108.65965271 227.14044189 C107.24909311 228.79761827 107.24909311 228.79761827 105.84715271 230.89044189 C102.45083744 235.51434099 99.61580166 238.98542585 93.78465271 240.14044189 C89.25302994 240.46291692 86.09690411 239.0160509 82.65965271 236.14044189 C78.77052295 232.27328461 75.24061423 228.20418651 72.28465271 223.57794189 C71.74840271 222.77356689 71.21215271 221.96919189 70.65965271 221.14044189 C69.99965271 221.14044189 69.33965271 221.14044189 68.65965271 221.14044189 C68.65965271 220.48044189 68.65965271 219.82044189 68.65965271 219.14044189 C67.99965271 219.14044189 67.33965271 219.14044189 66.65965271 219.14044189 C66.31934021 218.36700439 66.31934021 218.36700439 65.97215271 217.57794189 C64.17747653 214.24497185 62.16000256 210.99340518 59.65965271 208.14044189 C58.99965271 208.14044189 58.33965271 208.14044189 57.65965271 208.14044189 C57.16465271 206.65544189 57.16465271 206.65544189 56.65965271 205.14044189 C55.99965271 205.14044189 55.33965271 205.14044189 54.65965271 205.14044189 Z " fill="#5D32AC" transform="translate(158.34034729003906,88.85955810546875)"/>
<path d="M0 0 C6.48739591 6.52397897 10.03070313 14.6834314 10.390625 23.83984375 C10.1129124 34.02263927 6.96112365 42.5089665 0.078125 50.08984375 C-2.44440516 52.12892885 -4.99048326 53.71036528 -7.921875 55.08984375 C-8.63988281 55.45078125 -9.35789062 55.81171875 -10.09765625 56.18359375 C-18.86293401 58.99624166 -30.38772504 58.45368049 -38.671875 54.58984375 C-47.8113631 49.13933898 -52.59045898 41.6669458 -55.671875 31.65234375 C-56.72046783 20.90426728 -55.1678107 12.25388672 -48.796875 3.27734375 C-43.15256067 -3.43806648 -36.01940049 -7.40440235 -27.359375 -8.73046875 C-17.15987416 -9.48235503 -7.86102066 -6.50045939 0 0 Z " fill="#5D32AC" transform="translate(272.921875,168.91015625)"/>
<path d="M0 0 C21.12 0 42.24 0 64 0 C60.46278996 1.76860502 59.20938254 2.26919792 55.51953125 2.44921875 C54.16734497 2.51532349 54.16734497 2.51532349 52.7878418 2.58276367 C51.805979 2.61732666 50.82411621 2.65188965 49.8125 2.6875 C48.27299683 2.74611206 48.27299683 2.74611206 46.70239258 2.8059082 C37.190178 3.09343635 27.69773364 2.94095538 18.1875 2.6875 C17.45318756 2.6705307 16.71887512 2.6535614 15.96231079 2.63607788 C13.86369804 2.58475032 11.76602338 2.51948807 9.66796875 2.44921875 C8.45391357 2.41143311 7.2398584 2.37364746 5.98901367 2.3347168 C3 2 3 2 0 0 Z " fill="#462994" transform="translate(290,398)"/>
<path d="M0 0 C0.66 0.33 1.32 0.66 2 1 C1.125 7.75 1.125 7.75 0 10 C0.66 10.33 1.32 10.66 2 11 C1.67 11.99 1.34 12.98 1 14 C1.5471606 16.69260612 2.15937398 19.29063159 2.875 21.9375 C3.06191406 22.65357422 3.24882812 23.36964844 3.44140625 24.10742188 C3.95515169 26.07313583 4.47725329 28.0366606 5 30 C5.33548951 31.33279244 5.66940513 32.66598504 6 34 C5.01 33.67 4.02 33.34 3 33 C3 31.02 3 29.04 3 27 C2.34 27 1.68 27 1 27 C0.814375 25.576875 0.814375 25.576875 0.625 24.125 C0.28312823 20.91332809 0.28312823 20.91332809 -2 19 C-3.79750058 13.60749825 -3.76681926 8.18753896 -1.5 2.9375 C-1.005 1.968125 -0.51 0.99875 0 0 Z " fill="#7455AE" transform="translate(183,187)"/>
<path d="M0 0 C0.33 0.99 0.66 1.98 1 3 C0.01 3.33 -0.98 3.66 -2 4 C-1.01 5.485 -1.01 5.485 0 7 C-1.12907201 10.38721604 -2.51444325 11.51444325 -5 14 C-5.33 14.66 -5.66 15.32 -6 16 C-7.25212236 18.50424471 -8.96620078 20.1017874 -11 22 C-11.33 21.34 -11.66 20.68 -12 20 C-11.00390625 17.3984375 -11.00390625 17.3984375 -9.5625 14.375 C-9.08941406 13.37210938 -8.61632812 12.36921875 -8.12890625 11.3359375 C-7.75636719 10.56507812 -7.38382812 9.79421875 -7 9 C-6.34 9 -5.68 9 -5 9 C-4.855625 8.38125 -4.71125 7.7625 -4.5625 7.125 C-4 5 -4 5 -3 3 C-2.34 3 -1.68 3 -1 3 C-0.67 2.01 -0.34 1.02 0 0 Z " fill="#694DAC" transform="translate(109,110)"/>
<path d="M0 0 C4.59140954 0.9943605 8.68926324 1.23604581 13.375 1.0625 C13.705 2.0525 14.035 3.0425 14.375 4.0625 C15.035 4.3925 15.695 4.7225 16.375 5.0625 C16.045 6.7125 15.715 8.3625 15.375 10.0625 C14.6015625 9.134375 14.6015625 9.134375 13.8125 8.1875 C8.43468806 3.49915113 0.20639441 3.22371352 -6.625 2.0625 C-6.625 1.4025 -6.625 0.7425 -6.625 0.0625 C-3.98317457 -1.25841272 -2.84578085 -0.67400073 0 0 Z " fill="#7253AE" transform="translate(318.625,265.9375)"/>
<path d="M0 0 C0.66 0 1.32 0 2 0 C2 0.66 2 1.32 2 2 C3.32 1.67 4.64 1.34 6 1 C7 4.875 7 4.875 7 6 C7.99 6.66 8.98 7.32 10 8 C10 8.99 10 9.98 10 11 C10.33 10.34 10.66 9.68 11 9 C14.875 10.75 14.875 10.75 16 13 C9.54040304 13 6.45883571 10.31979872 1.72265625 6.10546875 C0 4 0 4 0 0 Z " fill="#765AB1" transform="translate(236,317)"/>
<path d="M0 0 C1.32 0 2.64 0 4 0 C5.44564445 2.29602354 6.01915134 3.63612457 5.875 6.375 C4.77406036 9.67781892 3.02748478 12.1876824 1 15 C0.06576355 11.98968256 -0.04449911 11.13349732 1 8 C0.34 8 -0.32 8 -1 8 C-0.67 5.36 -0.34 2.72 0 0 Z " fill="#6744AB" transform="translate(274,201)"/>
<path d="M0 0 C1.32 0.33 2.64 0.66 4 1 C4 1.66 4 2.32 4 3 C4.639375 3.2475 5.27875 3.495 5.9375 3.75 C6.618125 4.1625 7.29875 4.575 8 5 C8.144375 5.66 8.28875 6.32 8.4375 7 C8.623125 7.66 8.80875 8.32 9 9 C11.49034386 10.29660434 11.49034386 10.29660434 14 11 C14 11.66 14 12.32 14 13 C14.99 13 15.98 13 17 13 C18.6875 15 18.6875 15 20 17 C13.10122122 16.50723009 9.43419506 12.76503968 5.125 7.8125 C3 5 3 5 3 3 C2.34 3 1.68 3 1 3 C0.67 2.01 0.34 1.02 0 0 Z " fill="#7255AA" transform="translate(105,374)"/>
<path d="M0 0 C1 2 1 2 0.0625 5.125 C-0.288125 6.07375 -0.63875 7.0225 -1 8 C-1.99 8 -2.98 8 -4 8 C-4 8.66 -4 9.32 -4 10 C-4.66 10 -5.32 10 -6 10 C-6.226875 11.093125 -6.45375 12.18625 -6.6875 13.3125 C-8 17 -8 17 -10.5 19 C-11.325 19.33 -12.15 19.66 -13 20 C-13.66 19.67 -14.32 19.34 -15 19 C-14.21654285 17.82780457 -13.42297164 16.66236332 -12.625 15.5 C-12.18414062 14.8503125 -11.74328125 14.200625 -11.2890625 13.53125 C-10.65097656 12.77328125 -10.65097656 12.77328125 -10 12 C-9.34 12 -8.68 12 -8 12 C-7.79375 11.319375 -7.5875 10.63875 -7.375 9.9375 C-5.54591134 6.02990149 -2.89720966 3.16142061 0 0 Z " fill="#795CB0" transform="translate(276,275)"/>
<path d="M0 0 C0 1.65 0 3.3 0 5 C-0.66 4.67 -1.32 4.34 -2 4 C-2.99 4.495 -2.99 4.495 -4 5 C-3.67 6.32 -3.34 7.64 -3 9 C-3.66 9 -4.32 9 -5 9 C-5 9.99 -5 10.98 -5 12 C-7.64 11.67 -10.28 11.34 -13 11 C-4.28651685 0 -4.28651685 0 0 0 Z " fill="#6F50AF" transform="translate(123,99)"/>
<path d="M0 0 C1.53202706 0.25195908 3.05257128 0.57596777 4.5625 0.9375 C5.38878906 1.13214844 6.21507812 1.32679688 7.06640625 1.52734375 C8.02353516 1.76130859 8.02353516 1.76130859 9 2 C7.68 3.32 6.36 4.64 5 6 C5.66 6.66 6.32 7.32 7 8 C6 9 6 9 3.4375 9.0625 C2.633125 9.041875 1.82875 9.02125 1 9 C1 8.34 1 7.68 1 7 C0.34 6.67 -0.32 6.34 -1 6 C-1.042721 4.33388095 -1.04063832 2.66617115 -1 1 C-0.67 0.67 -0.34 0.34 0 0 Z " fill="#582EA4" transform="translate(248,320)"/>
<path d="M0 0 C0.66 0.33 1.32 0.66 2 1 C2 2.65 2 4.3 2 6 C2.99 6 3.98 6 5 6 C6.80411967 8.75924185 7.0127245 9.88972103 6.625 13.25 C6.41875 14.1575 6.2125 15.065 6 16 C5.01 16.33 4.02 16.66 3 17 C2.34 16.34 1.68 15.68 1 15 C1.515625 14.236875 2.03125 13.47375 2.5625 12.6875 C3.036875 11.800625 3.51125 10.91375 4 10 C3.67 9.01 3.34 8.02 3 7 C2.34 7 1.68 7 1 7 C0.01 5.02 -0.98 3.04 -2 1 C-1.34 0.67 -0.68 0.34 0 0 Z " fill="#876EB7" transform="translate(198,268)"/>
<path d="M0 0 C1.23074775 3.47785494 0.81048697 5.29490258 -0.6875 8.625 C-1.02136719 9.40101563 -1.35523438 10.17703125 -1.69921875 10.9765625 C-3.20299051 13.31576301 -4.44429008 13.9992378 -7 15 C-7 10.37410361 -6.016761 9.02514149 -3.5 5.25 C-2.8503125 4.26515625 -2.200625 3.2803125 -1.53125 2.265625 C-1.0259375 1.51796875 -0.520625 0.7703125 0 0 Z " fill="#6C4BAC" transform="translate(303,236)"/>
<path d="M0 0 C0.7425 0.0825 1.485 0.165 2.25 0.25 C2.25 0.91 2.25 1.57 2.25 2.25 C0.640625 3.8359375 0.640625 3.8359375 -1.5 5.625 C-4.3743732 8.06617866 -7.13543992 10.52649992 -9.75 13.25 C-9.75 12.26 -9.75 11.27 -9.75 10.25 C-10.41 10.25 -11.07 10.25 -11.75 10.25 C-11.75 9.59 -11.75 8.93 -11.75 8.25 C-10.1 7.59 -8.45 6.93 -6.75 6.25 C-6.75 5.59 -6.75 4.93 -6.75 4.25 C-4.56907554 1.50365068 -3.55855729 0.32350521 0 0 Z " fill="#6748A9" transform="translate(205.75,141.75)"/>
<path d="M0 0 C0.64453125 1.796875 0.64453125 1.796875 1 4 C-1.3125 7.25 -1.3125 7.25 -4 10 C-4.66 10 -5.32 10 -6 10 C-6.268125 10.639375 -6.53625 11.27875 -6.8125 11.9375 C-8 14 -8 14 -11 15 C-11 14.34 -11 13.68 -11 13 C-10.34 13 -9.68 13 -9 13 C-8.74476563 12.43796875 -8.48953125 11.8759375 -8.2265625 11.296875 C-6.84307219 8.70613518 -5.20061417 6.54892155 -3.375 4.25 C-2.74335938 3.45078125 -2.11171875 2.6515625 -1.4609375 1.828125 C-0.97882813 1.22484375 -0.49671875 0.6215625 0 0 Z " fill="#7B5CAF" transform="translate(181,306)"/>
<path d="M0 0 C2.85215083 2.75118973 5.34358701 5.60315225 7.75 8.75 C8.36359375 9.54921875 8.9771875 10.3484375 9.609375 11.171875 C10.06828125 11.77515625 10.5271875 12.3784375 11 13 C10.01 13.33 9.02 13.66 8 14 C6 13 6 13 5.125 11.0625 C3.77090236 8.57998766 2.57821507 8.03128603 0 7 C0 4.69 0 2.38 0 0 Z " fill="#7155AA" transform="translate(218,268)"/>
<path d="M0 0 C-0.66 0 -1.32 0 -2 0 C-2 0.99 -2 1.98 -2 3 C-3.59766103 3.86627399 -5.20339944 4.71766465 -6.8125 5.5625 C-7.70582031 6.03816406 -8.59914062 6.51382813 -9.51953125 7.00390625 C-12 8 -12 8 -15 7 C-13.75312408 6.03760548 -12.50235031 5.08025991 -11.25 4.125 C-10.55390625 3.59132812 -9.8578125 3.05765625 -9.140625 2.5078125 C-3.78780774 -1.26260258 -3.78780774 -1.26260258 0 0 Z " fill="#775BB3" transform="translate(241,163)"/>
<path d="M0 0 C0.99 0 1.98 0 3 0 C3 0.99 3 1.98 3 3 C2.34 3 1.68 3 1 3 C0.7525 3.556875 0.505 4.11375 0.25 4.6875 C-1.21606015 7.39971127 -3.02989471 9.63587365 -5 12 C-4.67 9.69 -4.34 7.38 -4 5 C-3.01 5 -2.02 5 -1 5 C-0.67 3.35 -0.34 1.7 0 0 Z " fill="#785CB0" transform="translate(193,315)"/>
<path d="M0 0 C0.99 0.33 1.98 0.66 3 1 C2.01 3.97 1.02 6.94 0 10 C-0.66 9.01 -1.32 8.02 -2 7 C-2.99 6.34 -3.98 5.68 -5 5 C-3.35 3.35 -1.7 1.7 0 0 Z " fill="#704FB2" transform="translate(158,287)"/>
<path d="M0 0 C0.99 0.33 1.98 0.66 3 1 C2.39305845 4.15330554 1.3583335 6.18888867 -0.5625 8.75 C-1.24505859 9.67039062 -1.24505859 9.67039062 -1.94140625 10.609375 C-2.29074219 11.06828125 -2.64007813 11.5271875 -3 12 C-3.68707555 9.50935112 -4 7.62113708 -4 5 C-2.68662604 3.9739266 -1.35335895 2.97272675 0 2 C0 1.34 0 0.68 0 0 Z " fill="#775CB3" transform="translate(202,302)"/>
<path d="M0 0 C0.66 0 1.32 0 2 0 C0.66749209 3.5875213 -0.830717 6.8364623 -3 10 C-3.66 10 -4.32 10 -5 10 C-5.66 11.32 -6.32 12.64 -7 14 C-7.33 13.01 -7.66 12.02 -8 11 C-7.34 11 -6.68 11 -6 11 C-4.47700477 8.06279492 -3.19899698 5.0831351 -2 2 C-1.34 2 -0.68 2 0 2 C0 1.34 0 0.68 0 0 Z " fill="#755CAE" transform="translate(397,367)"/>
<path d="M0 0 C0.33 0.66 0.66 1.32 1 2 C2.65 2 4.3 2 6 2 C6 1.34 6 0.68 6 0 C6.99 0.33 7.98 0.66 9 1 C8.34 1 7.68 1 7 1 C7.33 1.99 7.66 2.98 8 4 C3.56923077 6.09230769 3.56923077 6.09230769 0.6875 5.625 C0.130625 5.41875 -0.42625 5.2125 -1 5 C-0.67 3.35 -0.34 1.7 0 0 Z " fill="#673BB6" transform="translate(345,328)"/>
<path d="M0 0 C0.99 0.66 1.98 1.32 3 2 C1.35 5.3 -0.3 8.6 -2 12 C-2.33 12 -2.66 12 -3 12 C-2.67 9.69 -2.34 7.38 -2 5 C-2.99 4.67 -3.98 4.34 -5 4 C-3.35 2.68 -1.7 1.36 0 0 Z " fill="#7658B2" transform="translate(166,271)"/>
<path d="M0 0 C0.66 0 1.32 0 2 0 C3.7479503 5.24385089 4.19392201 9.47322267 4 15 C3.34 14.67 2.68 14.34 2 14 C1.3671875 11.85546875 1.3671875 11.85546875 0.875 9.1875 C0.70742188 8.31480469 0.53984375 7.44210938 0.3671875 6.54296875 C0 4 0 4 0 0 Z " fill="#6A50A7" transform="translate(279,181)"/>
<path d="M0 0 C0.66 0.33 1.32 0.66 2 1 C2 2.65 2 4.3 2 6 C0.35 6.66 -1.3 7.32 -3 8 C-3.66 7.01 -4.32 6.02 -5 5 C-3.35 3.35 -1.7 1.7 0 0 Z " fill="#7757B7" transform="translate(257,321)"/>
<path d="M0 0 C2.31 0.33 4.62 0.66 7 1 C6.67 3.31 6.34 5.62 6 8 C1.2 4.55384615 1.2 4.55384615 0.1875 1.75 C0.125625 1.1725 0.06375 0.595 0 0 Z " fill="#7759B3" transform="translate(222,210)"/>
<path d="M0 0 C1.32 0 2.64 0 4 0 C4 0.66 4 1.32 4 2 C2.3203125 3.32421875 2.3203125 3.32421875 0.125 4.6875 C-0.59429687 5.14511719 -1.31359375 5.60273438 -2.0546875 6.07421875 C-3.01761719 6.53248047 -3.01761719 6.53248047 -4 7 C-4.66 6.67 -5.32 6.34 -6 6 C-5.34 4.68 -4.68 3.36 -4 2 C-2.68 2 -1.36 2 0 2 C0 1.34 0 0.68 0 0 Z " fill="#856DB8" transform="translate(269,217)"/>
<path d="M0 0 C0 0.66 0 1.32 0 2 C-5.36513131 1.152874 -10.6787385 0.08318169 -16 -1 C-16 -1.33 -16 -1.66 -16 -2 C-9.86090397 -3.43680971 -5.79622721 -2.32637691 0 0 Z " fill="#866FB9" transform="translate(273,130)"/>
<path d="M0 0 C8.7595092 -0.44539877 8.7595092 -0.44539877 13 3 C13 3.66 13 4.32 13 5 C8.39146203 4.27991594 4.32762591 2.68704061 0 1 C0 0.67 0 0.34 0 0 Z " fill="#846AB7" transform="translate(333,339)"/>
<path d="M0 0 C1.65 0.33 3.3 0.66 5 1 C4.45773019 4.79588866 2.79872437 6.47211993 0 9 C-0.33 8.01 -0.66 7.02 -1 6 C-0.34 5.34 0.32 4.68 1 4 C0.6814823 1.89179203 0.6814823 1.89179203 0 0 Z " fill="#6544A5" transform="translate(178,330)"/>
<path d="M0 0 C1.0625 1.875 1.0625 1.875 2 4 C1.67 4.66 1.34 5.32 1 6 C-4.75 4.25 -4.75 4.25 -7 2 C-6.401875 1.855625 -5.80375 1.71125 -5.1875 1.5625 C-3.43849596 1.1127561 -1.71322977 0.57107659 0 0 Z " fill="#704EB0" transform="translate(309,323)"/>
<path d="M0 0 C1.32 0 2.64 0 4 0 C4 0.66 4 1.32 4 2 C3.34 2 2.68 2 2 2 C1.34 3.65 0.68 5.3 0 7 C-0.66 7 -1.32 7 -2 7 C-2.33 7.99 -2.66 8.98 -3 10 C-3.66 8.68 -4.32 7.36 -5 6 C-3.35 5.34 -1.7 4.68 0 4 C0 2.68 0 1.36 0 0 Z " fill="#8A71C0" transform="translate(211,292)"/>
<path d="M0 0 C0.99 0 1.98 0 3 0 C3.33 1.65 3.66 3.3 4 5 C4.99 4.67 5.98 4.34 7 4 C6.42655063 6.86724686 6.1385485 7.8614515 4 10 C3.32845067 8.71086513 2.66291141 7.41859796 2 6.125 C1.62875 5.40570313 1.2575 4.68640625 0.875 3.9453125 C0 2 0 2 0 0 Z " fill="#7153AF" transform="translate(343,298)"/>
<path d="M0 0 C0.66 0.33 1.32 0.66 2 1 C1.125 7.75 1.125 7.75 0 10 C0.66 10.33 1.32 10.66 2 11 C1.01 11.66 0.02 12.32 -1 13 C-1.02696365 11.20841511 -1.04637917 9.41671527 -1.0625 7.625 C-1.07410156 6.62726563 -1.08570313 5.62953125 -1.09765625 4.6015625 C-1 2 -1 2 0 0 Z " fill="#AA9ED8" transform="translate(183,187)"/>
<path d="M0 0 C7.875 0.875 7.875 0.875 9 2 C9.04063832 3.66617115 9.042721 5.33388095 9 7 C6.5 5.625 6.5 5.625 4 4 C4 3.34 4 2.68 4 2 C2.68 1.34 1.36 0.68 0 0 Z " fill="#7254AB" transform="translate(285,138)"/>
<path d="M0 0 C2.31 0.33 4.62 0.66 7 1 C7.33 1.99 7.66 2.98 8 4 C6.35 4.66 4.7 5.32 3 6 C0 2.25 0 2.25 0 0 Z " fill="#54309B" transform="translate(352,329)"/>
<path d="M0 0 C1.32 0.66 2.64 1.32 4 2 C3.34 2 2.68 2 2 2 C2 2.66 2 3.32 2 4 C0.37373596 5.38232443 -1.2925002 6.71937515 -3 8 C-3.66 7.67 -4.32 7.34 -5 7 C-4.67 6.01 -4.34 5.02 -4 4 C-3.01 4 -2.02 4 -1 4 C-0.67 2.68 -0.34 1.36 0 0 Z " fill="#8870B6" transform="translate(385,381)"/>
<path d="M0 0 C2.97 0.99 5.94 1.98 9 3 C8.67 3.99 8.34 4.98 8 6 C6.0625 5.625 6.0625 5.625 4 5 C3.67 4.34 3.34 3.68 3 3 C2.01 2.67 1.02 2.34 0 2 C0 1.34 0 0.68 0 0 Z " fill="#7A5DB4" transform="translate(290,302)"/>
<path d="M0 0 C2.96404505 2.80804268 5.44499019 5.18315774 7 9 C6.01 9 5.02 9 4 9 C4 8.34 4 7.68 4 7 C3.34 7 2.68 7 2 7 C2 6.01 2 5.02 2 4 C1.01 3.67 0.02 3.34 -1 3 C-0.67 2.01 -0.34 1.02 0 0 Z " fill="#8067B8" transform="translate(211,259)"/>
<path d="M0 0 C0.33 0.99 0.66 1.98 1 3 C0.01 3.33 -0.98 3.66 -2 4 C-1.01 5.485 -1.01 5.485 0 7 C-0.33 7.99 -0.66 8.98 -1 10 C-2.32 9.34 -3.64 8.68 -5 8 C-4.34 6.35 -3.68 4.7 -3 3 C-2.34 3 -1.68 3 -1 3 C-0.67 2.01 -0.34 1.02 0 0 Z " fill="#8464C1" transform="translate(109,110)"/>
<path d="M0 0 C0.66 0 1.32 0 2 0 C2 0.66 2 1.32 2 2 C2.969375 2.268125 3.93875 2.53625 4.9375 2.8125 C6.4534375 3.4003125 6.4534375 3.4003125 8 4 C8.33 4.99 8.66 5.98 9 7 C5.40608886 5.66511872 2.24509304 4.03977277 -1 2 C-0.67 1.34 -0.34 0.68 0 0 Z " fill="#7357AB" transform="translate(229,217)"/>
<path d="M0 0 C1.32 1.32 2.64 2.64 4 4 C3.01 5.485 3.01 5.485 2 7 C1.67 6.01 1.34 5.02 1 4 C-1.00016466 2.79117904 -1.00016466 2.79117904 -3 2 C-2.01 1.34 -1.02 0.68 0 0 Z " fill="#7957B3" transform="translate(297,144)"/>
<path d="M0 0 C1.65 0 3.3 0 5 0 C5 0.66 5 1.32 5 2 C3.46875 3.2890625 3.46875 3.2890625 1.5 4.625 C0.8503125 5.07101563 0.200625 5.51703125 -0.46875 5.9765625 C-0.9740625 6.31429687 -1.479375 6.65203125 -2 7 C-1.125 2.25 -1.125 2.25 0 0 Z " fill="#8166B7" transform="translate(203,142)"/>
<path d="M0 0 C0.99 0.33 1.98 0.66 3 1 C1.02 3.97 1.02 3.97 -1 7 C-1.99 6.67 -2.98 6.34 -4 6 C-2.68 4.02 -1.36 2.04 0 0 Z " fill="#7358B3" transform="translate(154,339)"/>
<path d="M0 0 C3.73487777 0.4979837 5.81237635 0.87491756 9 3 C5.67465243 4.10844919 3.37817425 3.84454356 0 3 C0 2.01 0 1.02 0 0 Z " fill="#7D61B4" transform="translate(331,320)"/>
<path d="M0 0 C0.33 0.66 0.66 1.32 1 2 C1.66 2 2.32 2 3 2 C1.694761 4.61047801 0.64173426 4.68066423 -2.0625 5.625 C-2.79597656 5.88539063 -3.52945313 6.14578125 -4.28515625 6.4140625 C-4.85105469 6.60742188 -5.41695312 6.80078125 -6 7 C-5.34 5.68 -4.68 4.36 -4 3 C-3.01 3 -2.02 3 -1 3 C-0.67 2.01 -0.34 1.02 0 0 Z " fill="#7051B2" transform="translate(188,299)"/>
<path d="M0 0 C0.99 0 1.98 0 3 0 C3.625 2.3125 3.625 2.3125 4 5 C3.01 6.485 3.01 6.485 2 8 C0.4375 6.25 0.4375 6.25 -1 4 C-0.6875 1.75 -0.6875 1.75 0 0 Z " fill="#633EAD" transform="translate(315,174)"/>
<path d="M0 0 C2.31 1.65 4.62 3.3 7 5 C3.34765818 6.21744727 2.37046678 5.64202228 -1 4 C-1.66 3.34 -2.32 2.68 -3 2 C-2.01 2 -1.02 2 0 2 C0 1.34 0 0.68 0 0 Z " fill="#765AB3" transform="translate(378,99)"/>
<path d="M0 0 C0.99 0.33 1.98 0.66 3 1 C1.694761 3.61047801 0.64173426 3.68066423 -2.0625 4.625 C-2.79597656 4.88539063 -3.52945312 5.14578125 -4.28515625 5.4140625 C-4.85105469 5.60742188 -5.41695313 5.80078125 -6 6 C-6 5.01 -6 4.02 -6 3 C-4.02 2.67 -2.04 2.34 0 2 C0 1.34 0 0.68 0 0 Z " fill="#7359AF" transform="translate(375,389)"/>
<path d="M0 0 C1.32 0.33 2.64 0.66 4 1 C4 1.66 4 2.32 4 3 C4.66 3 5.32 3 6 3 C5.67 3.99 5.34 4.98 5 6 C2.525 5.01 2.525 5.01 0 4 C0 2.66666667 0 1.33333333 0 0 Z " fill="#5A30A9" transform="translate(290,304)"/>
<path d="M0 0 C0.6875 1.8125 0.6875 1.8125 1 4 C-0.4375 5.75 -0.4375 5.75 -2 7 C-2.99 6.34 -3.98 5.68 -5 5 C-4.34 4.01 -3.68 3.02 -3 2 C-2.01 2 -1.02 2 0 2 C0 1.34 0 0.68 0 0 Z " fill="#7252B1" transform="translate(204,278)"/>
<path d="M0 0 C2.97 0.99 5.94 1.98 9 3 C8.01 3.33 7.02 3.66 6 4 C5.34 3.67 4.68 3.34 4 3 C3.67 3.99 3.34 4.98 3 6 C1 3 1 3 0 0 Z " fill="#866BBB" transform="translate(281,298)"/>
<path d="M0 0 C1.0326802 2.78823655 1.04509293 3.8677274 0.0625 6.75 C-0.288125 7.4925 -0.63875 8.235 -1 9 C-1.99 8.67 -2.98 8.34 -4 8 C-2.87548273 5.0280615 -1.77706209 2.66559313 0 0 Z " fill="#7E67B3" transform="translate(303,236)"/>
<path d="M0 0 C-2.39509338 2.89932357 -4.31245243 3.50168276 -8 4 C-8 3.01 -8 2.02 -8 1 C-5.29120665 -0.35439668 -2.99066732 -0.06501451 0 0 Z " fill="#52339B" transform="translate(247,162)"/>
<path d="M0 0 C-3.625 4.875 -3.625 4.875 -7 6 C-6.75 3.625 -6.75 3.625 -6 1 C-2.69333333 -1.34666667 -2.69333333 -1.34666667 0 0 Z " fill="#7356B2" transform="translate(104,126)"/>
<path d="M0 0 C-0.57344937 2.86724686 -0.8614515 3.8614515 -3 6 C-3.33 5.01 -3.66 4.02 -4 3 C-4.66 2.67 -5.32 2.34 -6 2 C-2.25 0 -2.25 0 0 0 Z " fill="#6F4DAC" transform="translate(129,96)"/>
<path d="M0 0 C0.99 1.32 1.98 2.64 3 4 C-0.75 6 -0.75 6 -3 6 C-1.125 1.125 -1.125 1.125 0 0 Z " fill="#7E62B9" transform="translate(294,250)"/>
<path d="M0 0 C0.99 0 1.98 0 3 0 C3 2.31 3 4.62 3 7 C2.01 6.34 1.02 5.68 0 5 C-0.1875 2.375 -0.1875 2.375 0 0 Z " fill="#653FA3" transform="translate(181,201)"/>
<path d="M0 0 C0.99 0.33 1.98 0.66 3 1 C2.34 1 1.68 1 1 1 C1 1.99 1 2.98 1 4 C-0.875 4.625 -0.875 4.625 -3 5 C-3.66 4.34 -4.32 3.68 -5 3 C-2.6875 1.4375 -2.6875 1.4375 0 0 Z " fill="#8669BF" transform="translate(238,162)"/>
<path d="M0 0 C0.66 0.33 1.32 0.66 2 1 C2 2.65 2 4.3 2 6 C0.02 5.01 -1.96 4.02 -4 3 C-2.68 2.01 -1.36 1.02 0 0 Z " fill="#896CBD" transform="translate(282,132)"/>
</svg>
